<?xml version="1.0" encoding="utf-8"?>
<!-- Generator: Adobe Illustrator 25.2.1, SVG Export Plug-In . SVG Version: 6.00 Build 0)  -->
<svg version="1.1" id="home-alt-3" xmlns="http://www.w3.org/2000/svg" xmlns:xlink="http://www.w3.org/1999/xlink" x="0px" y="0px"
	 viewBox="0 0 800 800" style="enable-background:new 0 0 800 800;" xml:space="preserve">
<style type="text/css">
	.st0{fill:#EFC16D;stroke:#EFC16D;stroke-width:33.3333;stroke-miterlimit:133.3333;}
</style>
<g id="SVGRepo_bgCarrier">
</g>
<g id="SVGRepo_tracerCarrier">
</g>
<g id="SVGRepo_iconCarrier">
	<path id="primary" class="st0" d="M723.7,376.3l-300-300c-13-13.1-34.1-13.2-47.1-0.2c-0.1,0.1-0.1,0.1-0.2,0.2l-300,300
		c-9.5,9.6-12.2,23.9-7,36.3c5.1,12.4,17.2,20.6,30.7,20.7h33.3v243.3c1.3,32.5,28.5,57.8,61,56.7h89c18.4,0,33.3-14.9,33.3-33.3
		V536.7c0-18.4,14.9-33.3,33.3-33.3h100c18.4,0,33.3,14.9,33.3,33.3V700c0,18.4,14.9,33.3,33.3,33.3h89c32.5,1.1,59.7-24.2,61-56.7
		V433.3H700c13.5-0.1,25.6-8.2,30.7-20.7C735.9,400.3,733.1,385.9,723.7,376.3z"/>
</g>
</svg>
